<mxfile host="app.diagrams.net" modified="2023-09-07T04:17:08.838Z" agent="Mozilla/5.0 (Windows NT 10.0; Win64; x64) AppleWebKit/537.36 (KHTML, like Gecko) Chrome/116.0.0.0 Safari/537.36" etag="SUokSSwfBzQjCLd4QoYb" version="21.7.2" type="device">
  <diagram name="Trang-1" id="FjWZiI6CqdOcznlWjRTV">
    <mxGraphModel dx="2332" dy="2173" grid="1" gridSize="10" guides="1" tooltips="1" connect="1" arrows="1" fold="1" page="1" pageScale="1" pageWidth="827" pageHeight="1169" math="0" shadow="0">
      <root>
        <mxCell id="0" />
        <mxCell id="1" parent="0" />
        <mxCell id="U5e7TNnSB-oZa5pznWMq-6" style="edgeStyle=orthogonalEdgeStyle;rounded=0;orthogonalLoop=1;jettySize=auto;html=1;exitX=0.5;exitY=1;exitDx=0;exitDy=0;entryX=0.5;entryY=0;entryDx=0;entryDy=0;" parent="1" source="U5e7TNnSB-oZa5pznWMq-1" target="U5e7TNnSB-oZa5pznWMq-2" edge="1">
          <mxGeometry relative="1" as="geometry" />
        </mxCell>
        <mxCell id="U5e7TNnSB-oZa5pznWMq-1" value="&lt;font style=&quot;font-size: 16px;&quot;&gt;Begin&lt;/font&gt;" style="ellipse;whiteSpace=wrap;html=1;" parent="1" vertex="1">
          <mxGeometry x="330" y="70" width="120" height="80" as="geometry" />
        </mxCell>
        <mxCell id="U5e7TNnSB-oZa5pznWMq-7" style="edgeStyle=orthogonalEdgeStyle;rounded=0;orthogonalLoop=1;jettySize=auto;html=1;exitX=0.5;exitY=1;exitDx=0;exitDy=0;entryX=0.5;entryY=0;entryDx=0;entryDy=0;" parent="1" source="U5e7TNnSB-oZa5pznWMq-2" target="U5e7TNnSB-oZa5pznWMq-3" edge="1">
          <mxGeometry relative="1" as="geometry" />
        </mxCell>
        <mxCell id="U5e7TNnSB-oZa5pznWMq-2" value="&lt;font style=&quot;font-size: 14px;&quot;&gt;input C&lt;/font&gt;" style="shape=parallelogram;perimeter=parallelogramPerimeter;whiteSpace=wrap;html=1;fixedSize=1;" parent="1" vertex="1">
          <mxGeometry x="330" y="230" width="120" height="60" as="geometry" />
        </mxCell>
        <mxCell id="U5e7TNnSB-oZa5pznWMq-8" style="edgeStyle=orthogonalEdgeStyle;rounded=0;orthogonalLoop=1;jettySize=auto;html=1;exitX=0.5;exitY=1;exitDx=0;exitDy=0;entryX=0.5;entryY=0;entryDx=0;entryDy=0;" parent="1" source="U5e7TNnSB-oZa5pznWMq-3" target="U5e7TNnSB-oZa5pznWMq-4" edge="1">
          <mxGeometry relative="1" as="geometry" />
        </mxCell>
        <mxCell id="U5e7TNnSB-oZa5pznWMq-3" value="&lt;span style=&quot;font-size: 14px;&quot;&gt;F = (C*9)\5 + 32&lt;/span&gt;" style="rounded=0;whiteSpace=wrap;html=1;" parent="1" vertex="1">
          <mxGeometry x="330" y="400" width="120" height="60" as="geometry" />
        </mxCell>
        <mxCell id="U5e7TNnSB-oZa5pznWMq-9" style="edgeStyle=orthogonalEdgeStyle;rounded=0;orthogonalLoop=1;jettySize=auto;html=1;exitX=0.5;exitY=1;exitDx=0;exitDy=0;entryX=0.5;entryY=0;entryDx=0;entryDy=0;" parent="1" source="U5e7TNnSB-oZa5pznWMq-4" target="U5e7TNnSB-oZa5pznWMq-5" edge="1">
          <mxGeometry relative="1" as="geometry" />
        </mxCell>
        <mxCell id="U5e7TNnSB-oZa5pznWMq-4" value="&lt;font style=&quot;font-size: 14px;&quot;&gt;Display F&lt;/font&gt;" style="shape=parallelogram;perimeter=parallelogramPerimeter;whiteSpace=wrap;html=1;fixedSize=1;" parent="1" vertex="1">
          <mxGeometry x="330" y="540" width="120" height="60" as="geometry" />
        </mxCell>
        <mxCell id="U5e7TNnSB-oZa5pznWMq-5" value="&lt;font style=&quot;font-size: 14px;&quot;&gt;End&lt;/font&gt;" style="ellipse;whiteSpace=wrap;html=1;" parent="1" vertex="1">
          <mxGeometry x="330" y="660" width="120" height="80" as="geometry" />
        </mxCell>
        <mxCell id="Fv5hJbhoz-VOcKtO6-Gc-13" style="edgeStyle=orthogonalEdgeStyle;rounded=0;orthogonalLoop=1;jettySize=auto;html=1;" parent="1" source="Fv5hJbhoz-VOcKtO6-Gc-1" edge="1">
          <mxGeometry relative="1" as="geometry">
            <mxPoint x="322.5" y="1410" as="targetPoint" />
          </mxGeometry>
        </mxCell>
        <mxCell id="Fv5hJbhoz-VOcKtO6-Gc-1" value="Begin" style="ellipse;whiteSpace=wrap;html=1;" parent="1" vertex="1">
          <mxGeometry x="262.5" y="1250" width="120" height="90" as="geometry" />
        </mxCell>
        <mxCell id="Fv5hJbhoz-VOcKtO6-Gc-2" value="&lt;h5&gt;&lt;font style=&quot;font-size: 12px;&quot;&gt;end&lt;/font&gt;&lt;/h5&gt;" style="ellipse;whiteSpace=wrap;html=1;" parent="1" vertex="1">
          <mxGeometry x="270" y="1940" width="120" height="80" as="geometry" />
        </mxCell>
        <mxCell id="Fv5hJbhoz-VOcKtO6-Gc-14" style="edgeStyle=orthogonalEdgeStyle;rounded=0;orthogonalLoop=1;jettySize=auto;html=1;" parent="1" source="Fv5hJbhoz-VOcKtO6-Gc-3" edge="1">
          <mxGeometry relative="1" as="geometry">
            <mxPoint x="325" y="1530" as="targetPoint" />
          </mxGeometry>
        </mxCell>
        <mxCell id="Fv5hJbhoz-VOcKtO6-Gc-3" value="N ngẫu nhiên từ 0 -9" style="shape=parallelogram;perimeter=parallelogramPerimeter;whiteSpace=wrap;html=1;fixedSize=1;" parent="1" vertex="1">
          <mxGeometry x="250" y="1410" width="150" height="60" as="geometry" />
        </mxCell>
        <mxCell id="Fv5hJbhoz-VOcKtO6-Gc-15" style="edgeStyle=orthogonalEdgeStyle;rounded=0;orthogonalLoop=1;jettySize=auto;html=1;" parent="1" source="Fv5hJbhoz-VOcKtO6-Gc-4" edge="1">
          <mxGeometry relative="1" as="geometry">
            <mxPoint x="325" y="1650" as="targetPoint" />
          </mxGeometry>
        </mxCell>
        <mxCell id="Fv5hJbhoz-VOcKtO6-Gc-4" value="input m" style="shape=parallelogram;perimeter=parallelogramPerimeter;whiteSpace=wrap;html=1;fixedSize=1;" parent="1" vertex="1">
          <mxGeometry x="247.5" y="1530" width="155" height="60" as="geometry" />
        </mxCell>
        <mxCell id="Fv5hJbhoz-VOcKtO6-Gc-25" style="edgeStyle=orthogonalEdgeStyle;rounded=0;orthogonalLoop=1;jettySize=auto;html=1;entryX=1;entryY=0.5;entryDx=0;entryDy=0;" parent="1" source="Fv5hJbhoz-VOcKtO6-Gc-5" target="Fv5hJbhoz-VOcKtO6-Gc-7" edge="1">
          <mxGeometry relative="1" as="geometry" />
        </mxCell>
        <mxCell id="Fv5hJbhoz-VOcKtO6-Gc-27" style="edgeStyle=orthogonalEdgeStyle;rounded=0;orthogonalLoop=1;jettySize=auto;html=1;" parent="1" source="Fv5hJbhoz-VOcKtO6-Gc-5" edge="1">
          <mxGeometry relative="1" as="geometry">
            <mxPoint x="510" y="1694" as="targetPoint" />
          </mxGeometry>
        </mxCell>
        <mxCell id="Fv5hJbhoz-VOcKtO6-Gc-5" value="N == m" style="rhombus;whiteSpace=wrap;html=1;" parent="1" vertex="1">
          <mxGeometry x="285" y="1654" width="80" height="80" as="geometry" />
        </mxCell>
        <mxCell id="Fv5hJbhoz-VOcKtO6-Gc-28" style="edgeStyle=orthogonalEdgeStyle;rounded=0;orthogonalLoop=1;jettySize=auto;html=1;" parent="1" source="Fv5hJbhoz-VOcKtO6-Gc-6" target="Fv5hJbhoz-VOcKtO6-Gc-2" edge="1">
          <mxGeometry relative="1" as="geometry">
            <Array as="points">
              <mxPoint x="560" y="1890" />
              <mxPoint x="330" y="1890" />
            </Array>
          </mxGeometry>
        </mxCell>
        <mxCell id="Fv5hJbhoz-VOcKtO6-Gc-6" value="đã đoán trúng" style="shape=parallelogram;perimeter=parallelogramPerimeter;whiteSpace=wrap;html=1;fixedSize=1;" parent="1" vertex="1">
          <mxGeometry x="500" y="1666" width="120" height="56" as="geometry" />
        </mxCell>
        <mxCell id="Fv5hJbhoz-VOcKtO6-Gc-21" style="edgeStyle=orthogonalEdgeStyle;rounded=0;orthogonalLoop=1;jettySize=auto;html=1;" parent="1" source="Fv5hJbhoz-VOcKtO6-Gc-7" target="Fv5hJbhoz-VOcKtO6-Gc-2" edge="1">
          <mxGeometry relative="1" as="geometry">
            <mxPoint x="90" y="1900" as="targetPoint" />
            <Array as="points">
              <mxPoint x="90" y="1820" />
              <mxPoint x="91" y="1820" />
              <mxPoint x="91" y="1890" />
            </Array>
          </mxGeometry>
        </mxCell>
        <mxCell id="Fv5hJbhoz-VOcKtO6-Gc-7" value="đã sai" style="shape=parallelogram;perimeter=parallelogramPerimeter;whiteSpace=wrap;html=1;fixedSize=1;" parent="1" vertex="1">
          <mxGeometry x="30" y="1664" width="120" height="60" as="geometry" />
        </mxCell>
        <mxCell id="Fv5hJbhoz-VOcKtO6-Gc-36" style="edgeStyle=orthogonalEdgeStyle;rounded=0;orthogonalLoop=1;jettySize=auto;html=1;entryX=0.5;entryY=0;entryDx=0;entryDy=0;" parent="1" source="Fv5hJbhoz-VOcKtO6-Gc-29" target="Fv5hJbhoz-VOcKtO6-Gc-31" edge="1">
          <mxGeometry relative="1" as="geometry" />
        </mxCell>
        <mxCell id="Fv5hJbhoz-VOcKtO6-Gc-29" value="&lt;font style=&quot;font-size: 14px;&quot;&gt;Begin&lt;/font&gt;" style="ellipse;whiteSpace=wrap;html=1;" parent="1" vertex="1">
          <mxGeometry x="150" y="2140" width="120" height="80" as="geometry" />
        </mxCell>
        <mxCell id="Fv5hJbhoz-VOcKtO6-Gc-30" value="&lt;font style=&quot;font-size: 14px;&quot;&gt;End&lt;/font&gt;" style="ellipse;whiteSpace=wrap;html=1;" parent="1" vertex="1">
          <mxGeometry x="140" y="2860" width="120" height="80" as="geometry" />
        </mxCell>
        <mxCell id="Fv5hJbhoz-VOcKtO6-Gc-31" value="&lt;font style=&quot;font-size: 14px;&quot;&gt;input&amp;nbsp; Math&lt;/font&gt;" style="shape=parallelogram;perimeter=parallelogramPerimeter;whiteSpace=wrap;html=1;fixedSize=1;" parent="1" vertex="1">
          <mxGeometry x="150" y="2278" width="120" height="60" as="geometry" />
        </mxCell>
        <mxCell id="Fv5hJbhoz-VOcKtO6-Gc-32" value="&lt;font style=&quot;font-size: 14px;&quot;&gt;input Chemistry&lt;/font&gt;" style="shape=parallelogram;perimeter=parallelogramPerimeter;whiteSpace=wrap;html=1;fixedSize=1;" parent="1" vertex="1">
          <mxGeometry x="140" y="2490" width="120" height="60" as="geometry" />
        </mxCell>
        <mxCell id="Fv5hJbhoz-VOcKtO6-Gc-33" value="&lt;font style=&quot;font-size: 14px;&quot;&gt;input Physics&lt;/font&gt;" style="shape=parallelogram;perimeter=parallelogramPerimeter;whiteSpace=wrap;html=1;fixedSize=1;" parent="1" vertex="1">
          <mxGeometry x="143" y="2390" width="120" height="60" as="geometry" />
        </mxCell>
        <mxCell id="Fv5hJbhoz-VOcKtO6-Gc-34" value="&lt;font style=&quot;font-size: 14px;&quot;&gt;average =(Math + physics + chemistry)/3&lt;/font&gt;" style="rounded=0;whiteSpace=wrap;html=1;" parent="1" vertex="1">
          <mxGeometry x="126.5" y="2600" width="167" height="60" as="geometry" />
        </mxCell>
        <mxCell id="Fv5hJbhoz-VOcKtO6-Gc-35" value="&lt;font style=&quot;font-size: 14px;&quot;&gt;output average&lt;/font&gt;" style="shape=parallelogram;perimeter=parallelogramPerimeter;whiteSpace=wrap;html=1;fixedSize=1;" parent="1" vertex="1">
          <mxGeometry x="150" y="2730" width="120" height="60" as="geometry" />
        </mxCell>
        <mxCell id="Fv5hJbhoz-VOcKtO6-Gc-43" value="" style="endArrow=classic;html=1;rounded=0;" parent="1" edge="1">
          <mxGeometry width="50" height="50" relative="1" as="geometry">
            <mxPoint x="210" y="2340" as="sourcePoint" />
            <mxPoint x="210" y="2390" as="targetPoint" />
          </mxGeometry>
        </mxCell>
        <mxCell id="Fv5hJbhoz-VOcKtO6-Gc-44" value="" style="endArrow=classic;html=1;rounded=0;exitX=0.5;exitY=1;exitDx=0;exitDy=0;" parent="1" source="Fv5hJbhoz-VOcKtO6-Gc-33" edge="1">
          <mxGeometry width="50" height="50" relative="1" as="geometry">
            <mxPoint x="200" y="2450" as="sourcePoint" />
            <mxPoint x="203" y="2490" as="targetPoint" />
          </mxGeometry>
        </mxCell>
        <mxCell id="Fv5hJbhoz-VOcKtO6-Gc-45" value="" style="endArrow=classic;html=1;rounded=0;entryX=0.44;entryY=0;entryDx=0;entryDy=0;entryPerimeter=0;" parent="1" target="Fv5hJbhoz-VOcKtO6-Gc-34" edge="1">
          <mxGeometry width="50" height="50" relative="1" as="geometry">
            <mxPoint x="200" y="2550" as="sourcePoint" />
            <mxPoint x="250" y="2500" as="targetPoint" />
          </mxGeometry>
        </mxCell>
        <mxCell id="Fv5hJbhoz-VOcKtO6-Gc-46" value="" style="endArrow=classic;html=1;rounded=0;" parent="1" target="Fv5hJbhoz-VOcKtO6-Gc-35" edge="1">
          <mxGeometry width="50" height="50" relative="1" as="geometry">
            <mxPoint x="210" y="2660" as="sourcePoint" />
            <mxPoint x="260" y="2610" as="targetPoint" />
          </mxGeometry>
        </mxCell>
        <mxCell id="Fv5hJbhoz-VOcKtO6-Gc-47" value="" style="endArrow=classic;html=1;rounded=0;entryX=0.5;entryY=0;entryDx=0;entryDy=0;" parent="1" target="Fv5hJbhoz-VOcKtO6-Gc-30" edge="1">
          <mxGeometry width="50" height="50" relative="1" as="geometry">
            <mxPoint x="200" y="2790" as="sourcePoint" />
            <mxPoint x="250" y="2740" as="targetPoint" />
          </mxGeometry>
        </mxCell>
        <mxCell id="Fv5hJbhoz-VOcKtO6-Gc-55" style="edgeStyle=orthogonalEdgeStyle;rounded=0;orthogonalLoop=1;jettySize=auto;html=1;entryX=0.5;entryY=0;entryDx=0;entryDy=0;" parent="1" source="Fv5hJbhoz-VOcKtO6-Gc-50" target="Fv5hJbhoz-VOcKtO6-Gc-51" edge="1">
          <mxGeometry relative="1" as="geometry" />
        </mxCell>
        <mxCell id="Fv5hJbhoz-VOcKtO6-Gc-50" value="Begin" style="ellipse;whiteSpace=wrap;html=1;" parent="1" vertex="1">
          <mxGeometry x="720" y="2160" width="120" height="80" as="geometry" />
        </mxCell>
        <mxCell id="Fv5hJbhoz-VOcKtO6-Gc-56" style="edgeStyle=orthogonalEdgeStyle;rounded=0;orthogonalLoop=1;jettySize=auto;html=1;entryX=0.5;entryY=0;entryDx=0;entryDy=0;" parent="1" source="Fv5hJbhoz-VOcKtO6-Gc-51" target="Fv5hJbhoz-VOcKtO6-Gc-52" edge="1">
          <mxGeometry relative="1" as="geometry" />
        </mxCell>
        <mxCell id="Fv5hJbhoz-VOcKtO6-Gc-51" value="input D" style="shape=parallelogram;perimeter=parallelogramPerimeter;whiteSpace=wrap;html=1;fixedSize=1;" parent="1" vertex="1">
          <mxGeometry x="720" y="2310" width="120" height="60" as="geometry" />
        </mxCell>
        <mxCell id="Fv5hJbhoz-VOcKtO6-Gc-57" style="edgeStyle=orthogonalEdgeStyle;rounded=0;orthogonalLoop=1;jettySize=auto;html=1;" parent="1" source="Fv5hJbhoz-VOcKtO6-Gc-52" target="Fv5hJbhoz-VOcKtO6-Gc-53" edge="1">
          <mxGeometry relative="1" as="geometry" />
        </mxCell>
        <mxCell id="Fv5hJbhoz-VOcKtO6-Gc-52" value="total = D * 23000" style="rounded=0;whiteSpace=wrap;html=1;" parent="1" vertex="1">
          <mxGeometry x="720" y="2450" width="120" height="60" as="geometry" />
        </mxCell>
        <mxCell id="Fv5hJbhoz-VOcKtO6-Gc-58" style="edgeStyle=orthogonalEdgeStyle;rounded=0;orthogonalLoop=1;jettySize=auto;html=1;" parent="1" source="Fv5hJbhoz-VOcKtO6-Gc-53" target="Fv5hJbhoz-VOcKtO6-Gc-54" edge="1">
          <mxGeometry relative="1" as="geometry" />
        </mxCell>
        <mxCell id="Fv5hJbhoz-VOcKtO6-Gc-53" value="display total" style="shape=parallelogram;perimeter=parallelogramPerimeter;whiteSpace=wrap;html=1;fixedSize=1;" parent="1" vertex="1">
          <mxGeometry x="720" y="2580" width="120" height="60" as="geometry" />
        </mxCell>
        <mxCell id="Fv5hJbhoz-VOcKtO6-Gc-54" value="End" style="ellipse;whiteSpace=wrap;html=1;" parent="1" vertex="1">
          <mxGeometry x="720" y="2710" width="120" height="80" as="geometry" />
        </mxCell>
        <mxCell id="Fv5hJbhoz-VOcKtO6-Gc-60" value="&lt;font style=&quot;font-size: 18px;&quot;&gt;End&lt;/font&gt;" style="ellipse;whiteSpace=wrap;html=1;" parent="1" vertex="1">
          <mxGeometry x="1480" y="3610" width="160" height="80" as="geometry" />
        </mxCell>
        <mxCell id="Fv5hJbhoz-VOcKtO6-Gc-82" style="edgeStyle=orthogonalEdgeStyle;rounded=0;orthogonalLoop=1;jettySize=auto;html=1;entryX=0.5;entryY=0;entryDx=0;entryDy=0;" parent="1" source="Fv5hJbhoz-VOcKtO6-Gc-62" target="Fv5hJbhoz-VOcKtO6-Gc-64" edge="1">
          <mxGeometry relative="1" as="geometry" />
        </mxCell>
        <mxCell id="Fv5hJbhoz-VOcKtO6-Gc-62" value="&lt;font style=&quot;font-size: 18px;&quot;&gt;Input C&lt;/font&gt;" style="shape=parallelogram;perimeter=parallelogramPerimeter;whiteSpace=wrap;html=1;fixedSize=1;" parent="1" vertex="1">
          <mxGeometry x="1500" y="2610" width="120" height="60" as="geometry" />
        </mxCell>
        <mxCell id="Fv5hJbhoz-VOcKtO6-Gc-81" style="edgeStyle=orthogonalEdgeStyle;rounded=0;orthogonalLoop=1;jettySize=auto;html=1;" parent="1" source="Fv5hJbhoz-VOcKtO6-Gc-63" target="Fv5hJbhoz-VOcKtO6-Gc-62" edge="1">
          <mxGeometry relative="1" as="geometry" />
        </mxCell>
        <mxCell id="Fv5hJbhoz-VOcKtO6-Gc-63" value="&lt;font style=&quot;font-size: 18px;&quot;&gt;Input B&lt;/font&gt;" style="shape=parallelogram;perimeter=parallelogramPerimeter;whiteSpace=wrap;html=1;fixedSize=1;" parent="1" vertex="1">
          <mxGeometry x="1500" y="2520" width="120" height="60" as="geometry" />
        </mxCell>
        <mxCell id="Fv5hJbhoz-VOcKtO6-Gc-73" style="edgeStyle=orthogonalEdgeStyle;rounded=0;orthogonalLoop=1;jettySize=auto;html=1;" parent="1" source="Fv5hJbhoz-VOcKtO6-Gc-64" target="Fv5hJbhoz-VOcKtO6-Gc-65" edge="1">
          <mxGeometry relative="1" as="geometry" />
        </mxCell>
        <mxCell id="Fv5hJbhoz-VOcKtO6-Gc-64" value="&lt;font style=&quot;font-size: 18px;&quot;&gt;max = A&lt;/font&gt;" style="rounded=0;whiteSpace=wrap;html=1;" parent="1" vertex="1">
          <mxGeometry x="1500" y="2700" width="120" height="60" as="geometry" />
        </mxCell>
        <mxCell id="Fv5hJbhoz-VOcKtO6-Gc-74" style="edgeStyle=orthogonalEdgeStyle;rounded=0;orthogonalLoop=1;jettySize=auto;html=1;" parent="1" source="Fv5hJbhoz-VOcKtO6-Gc-65" target="Fv5hJbhoz-VOcKtO6-Gc-68" edge="1">
          <mxGeometry relative="1" as="geometry" />
        </mxCell>
        <mxCell id="Fv5hJbhoz-VOcKtO6-Gc-79" style="edgeStyle=orthogonalEdgeStyle;rounded=0;orthogonalLoop=1;jettySize=auto;html=1;entryX=1;entryY=0.5;entryDx=0;entryDy=0;" parent="1" edge="1">
          <mxGeometry relative="1" as="geometry">
            <mxPoint x="1630" y="2850" as="sourcePoint" />
            <mxPoint x="1630" y="3180" as="targetPoint" />
            <Array as="points">
              <mxPoint x="1915" y="2850" />
              <mxPoint x="1915" y="3180" />
            </Array>
          </mxGeometry>
        </mxCell>
        <mxCell id="Fv5hJbhoz-VOcKtO6-Gc-65" value="&lt;font style=&quot;font-size: 18px;&quot;&gt;B &amp;gt; max&lt;/font&gt;" style="rhombus;whiteSpace=wrap;html=1;" parent="1" vertex="1">
          <mxGeometry x="1485" y="2810" width="150" height="80" as="geometry" />
        </mxCell>
        <mxCell id="Fv5hJbhoz-VOcKtO6-Gc-76" style="edgeStyle=orthogonalEdgeStyle;rounded=0;orthogonalLoop=1;jettySize=auto;html=1;entryX=0.5;entryY=0;entryDx=0;entryDy=0;" parent="1" source="Fv5hJbhoz-VOcKtO6-Gc-66" target="Fv5hJbhoz-VOcKtO6-Gc-71" edge="1">
          <mxGeometry relative="1" as="geometry" />
        </mxCell>
        <mxCell id="Fv5hJbhoz-VOcKtO6-Gc-80" style="edgeStyle=orthogonalEdgeStyle;rounded=0;orthogonalLoop=1;jettySize=auto;html=1;entryX=0;entryY=0.5;entryDx=0;entryDy=0;exitX=0;exitY=0.5;exitDx=0;exitDy=0;" parent="1" source="Fv5hJbhoz-VOcKtO6-Gc-66" edge="1">
          <mxGeometry relative="1" as="geometry">
            <mxPoint x="1555" y="3570" as="targetPoint" />
            <mxPoint x="1535" y="3150" as="sourcePoint" />
            <Array as="points">
              <mxPoint x="1300" y="3180" />
              <mxPoint x="1300" y="3430" />
              <mxPoint x="1560" y="3430" />
              <mxPoint x="1560" y="3570" />
            </Array>
          </mxGeometry>
        </mxCell>
        <mxCell id="Fv5hJbhoz-VOcKtO6-Gc-66" value="&lt;font style=&quot;font-size: 18px;&quot;&gt;C &amp;gt; max&lt;/font&gt;" style="rhombus;whiteSpace=wrap;html=1;" parent="1" vertex="1">
          <mxGeometry x="1485" y="3140" width="150" height="80" as="geometry" />
        </mxCell>
        <mxCell id="Fv5hJbhoz-VOcKtO6-Gc-75" style="edgeStyle=orthogonalEdgeStyle;rounded=0;orthogonalLoop=1;jettySize=auto;html=1;entryX=0.5;entryY=0;entryDx=0;entryDy=0;" parent="1" source="Fv5hJbhoz-VOcKtO6-Gc-68" target="Fv5hJbhoz-VOcKtO6-Gc-66" edge="1">
          <mxGeometry relative="1" as="geometry" />
        </mxCell>
        <mxCell id="Fv5hJbhoz-VOcKtO6-Gc-68" value="&lt;font style=&quot;font-size: 18px;&quot;&gt;max = B&lt;/font&gt;" style="rounded=0;whiteSpace=wrap;html=1;" parent="1" vertex="1">
          <mxGeometry x="1500" y="2960" width="120" height="60" as="geometry" />
        </mxCell>
        <mxCell id="Fv5hJbhoz-VOcKtO6-Gc-78" style="edgeStyle=orthogonalEdgeStyle;rounded=0;orthogonalLoop=1;jettySize=auto;html=1;" parent="1" source="Fv5hJbhoz-VOcKtO6-Gc-71" target="Fv5hJbhoz-VOcKtO6-Gc-77" edge="1">
          <mxGeometry relative="1" as="geometry" />
        </mxCell>
        <mxCell id="Fv5hJbhoz-VOcKtO6-Gc-71" value="&lt;font style=&quot;font-size: 18px;&quot;&gt;max = C&lt;/font&gt;" style="rounded=0;whiteSpace=wrap;html=1;" parent="1" vertex="1">
          <mxGeometry x="1500" y="3300" width="120" height="60" as="geometry" />
        </mxCell>
        <mxCell id="Fv5hJbhoz-VOcKtO6-Gc-84" value="" style="edgeStyle=orthogonalEdgeStyle;rounded=0;orthogonalLoop=1;jettySize=auto;html=1;" parent="1" source="Fv5hJbhoz-VOcKtO6-Gc-77" target="Fv5hJbhoz-VOcKtO6-Gc-60" edge="1">
          <mxGeometry relative="1" as="geometry" />
        </mxCell>
        <mxCell id="Fv5hJbhoz-VOcKtO6-Gc-77" value="&lt;font style=&quot;font-size: 18px;&quot;&gt;output max&lt;/font&gt;" style="shape=parallelogram;perimeter=parallelogramPerimeter;whiteSpace=wrap;html=1;fixedSize=1;" parent="1" vertex="1">
          <mxGeometry x="1495" y="3520" width="130" height="60" as="geometry" />
        </mxCell>
        <mxCell id="Fv5hJbhoz-VOcKtO6-Gc-91" value="" style="edgeStyle=orthogonalEdgeStyle;rounded=0;orthogonalLoop=1;jettySize=auto;html=1;" parent="1" source="Fv5hJbhoz-VOcKtO6-Gc-87" target="Fv5hJbhoz-VOcKtO6-Gc-63" edge="1">
          <mxGeometry relative="1" as="geometry" />
        </mxCell>
        <mxCell id="Fv5hJbhoz-VOcKtO6-Gc-87" value="&lt;font style=&quot;font-size: 18px;&quot;&gt;input A&lt;/font&gt;" style="shape=parallelogram;perimeter=parallelogramPerimeter;whiteSpace=wrap;html=1;fixedSize=1;" parent="1" vertex="1">
          <mxGeometry x="1500" y="2450" width="120" height="40" as="geometry" />
        </mxCell>
        <mxCell id="Fv5hJbhoz-VOcKtO6-Gc-90" style="edgeStyle=orthogonalEdgeStyle;rounded=0;orthogonalLoop=1;jettySize=auto;html=1;entryX=0.5;entryY=0;entryDx=0;entryDy=0;" parent="1" source="Fv5hJbhoz-VOcKtO6-Gc-89" target="Fv5hJbhoz-VOcKtO6-Gc-87" edge="1">
          <mxGeometry relative="1" as="geometry" />
        </mxCell>
        <mxCell id="Fv5hJbhoz-VOcKtO6-Gc-89" value="&lt;font style=&quot;font-size: 18px;&quot;&gt;Begin&lt;/font&gt;" style="ellipse;whiteSpace=wrap;html=1;" parent="1" vertex="1">
          <mxGeometry x="1480" y="2338" width="160" height="80" as="geometry" />
        </mxCell>
        <mxCell id="Fv5hJbhoz-VOcKtO6-Gc-95" value="&lt;font style=&quot;font-size: 18px;&quot;&gt;True&lt;/font&gt;" style="text;html=1;strokeColor=none;fillColor=none;align=center;verticalAlign=middle;whiteSpace=wrap;rounded=0;" parent="1" vertex="1">
          <mxGeometry x="1550" y="3250" width="60" height="30" as="geometry" />
        </mxCell>
        <mxCell id="Fv5hJbhoz-VOcKtO6-Gc-102" value="&lt;font style=&quot;font-size: 18px;&quot;&gt;False&lt;/font&gt;" style="text;html=1;strokeColor=none;fillColor=none;align=center;verticalAlign=middle;whiteSpace=wrap;rounded=0;" parent="1" vertex="1">
          <mxGeometry x="1390" y="3150" width="60" height="30" as="geometry" />
        </mxCell>
        <mxCell id="Fv5hJbhoz-VOcKtO6-Gc-103" value="&lt;font style=&quot;font-size: 18px;&quot;&gt;False&lt;/font&gt;" style="text;html=1;strokeColor=none;fillColor=none;align=center;verticalAlign=middle;whiteSpace=wrap;rounded=0;" parent="1" vertex="1">
          <mxGeometry x="1730" y="2810" width="60" height="30" as="geometry" />
        </mxCell>
        <mxCell id="Fv5hJbhoz-VOcKtO6-Gc-104" value="&lt;font style=&quot;font-size: 18px;&quot;&gt;True&lt;/font&gt;" style="text;html=1;strokeColor=none;fillColor=none;align=center;verticalAlign=middle;whiteSpace=wrap;rounded=0;" parent="1" vertex="1">
          <mxGeometry x="1565" y="2910" width="60" height="30" as="geometry" />
        </mxCell>
        <mxCell id="uggGQ1npD3m-xXOtvxhS-35" style="edgeStyle=orthogonalEdgeStyle;rounded=0;orthogonalLoop=1;jettySize=auto;html=1;entryX=0.456;entryY=0.043;entryDx=0;entryDy=0;entryPerimeter=0;" parent="1" source="uggGQ1npD3m-xXOtvxhS-1" target="uggGQ1npD3m-xXOtvxhS-2" edge="1">
          <mxGeometry relative="1" as="geometry" />
        </mxCell>
        <mxCell id="uggGQ1npD3m-xXOtvxhS-1" value="&lt;font style=&quot;font-size: 24px;&quot;&gt;Begin&lt;/font&gt;" style="ellipse;whiteSpace=wrap;html=1;" parent="1" vertex="1">
          <mxGeometry x="1365" y="-190" width="120" height="50" as="geometry" />
        </mxCell>
        <mxCell id="uggGQ1npD3m-xXOtvxhS-36" style="edgeStyle=orthogonalEdgeStyle;rounded=0;orthogonalLoop=1;jettySize=auto;html=1;entryX=0.5;entryY=0;entryDx=0;entryDy=0;" parent="1" source="uggGQ1npD3m-xXOtvxhS-2" target="uggGQ1npD3m-xXOtvxhS-3" edge="1">
          <mxGeometry relative="1" as="geometry" />
        </mxCell>
        <mxCell id="uggGQ1npD3m-xXOtvxhS-2" value="&lt;font style=&quot;font-size: 24px;&quot;&gt;int score&lt;/font&gt;" style="shape=parallelogram;perimeter=parallelogramPerimeter;whiteSpace=wrap;html=1;fixedSize=1;" parent="1" vertex="1">
          <mxGeometry x="1370" y="-110" width="120" height="60" as="geometry" />
        </mxCell>
        <mxCell id="uggGQ1npD3m-xXOtvxhS-12" style="edgeStyle=orthogonalEdgeStyle;rounded=0;orthogonalLoop=1;jettySize=auto;html=1;entryX=1;entryY=0.5;entryDx=0;entryDy=0;" parent="1" source="uggGQ1npD3m-xXOtvxhS-3" target="uggGQ1npD3m-xXOtvxhS-7" edge="1">
          <mxGeometry relative="1" as="geometry">
            <Array as="points">
              <mxPoint x="1530" y="10.000000000000227" />
              <mxPoint x="1530" y="180" />
            </Array>
          </mxGeometry>
        </mxCell>
        <mxCell id="uggGQ1npD3m-xXOtvxhS-27" style="edgeStyle=orthogonalEdgeStyle;rounded=0;orthogonalLoop=1;jettySize=auto;html=1;entryX=0.599;entryY=0;entryDx=0;entryDy=0;entryPerimeter=0;" parent="1" source="uggGQ1npD3m-xXOtvxhS-3" target="uggGQ1npD3m-xXOtvxhS-10" edge="1">
          <mxGeometry relative="1" as="geometry" />
        </mxCell>
        <mxCell id="uggGQ1npD3m-xXOtvxhS-3" value="&lt;font style=&quot;font-size: 18px;&quot;&gt;75 &amp;lt;= score&lt;/font&gt;" style="rhombus;whiteSpace=wrap;html=1;" parent="1" vertex="1">
          <mxGeometry x="1390" y="-30" width="80" height="80" as="geometry" />
        </mxCell>
        <mxCell id="uggGQ1npD3m-xXOtvxhS-20" style="edgeStyle=orthogonalEdgeStyle;rounded=0;orthogonalLoop=1;jettySize=auto;html=1;entryX=0.457;entryY=-0.012;entryDx=0;entryDy=0;entryPerimeter=0;" parent="1" source="uggGQ1npD3m-xXOtvxhS-4" target="uggGQ1npD3m-xXOtvxhS-18" edge="1">
          <mxGeometry relative="1" as="geometry">
            <Array as="points">
              <mxPoint x="1435" y="809" />
            </Array>
          </mxGeometry>
        </mxCell>
        <mxCell id="uggGQ1npD3m-xXOtvxhS-4" value="&lt;font style=&quot;font-size: 18px;&quot;&gt;score &amp;lt; 35&lt;/font&gt;" style="rhombus;whiteSpace=wrap;html=1;" parent="1" vertex="1">
          <mxGeometry x="1390" y="710" width="90" height="60" as="geometry" />
        </mxCell>
        <mxCell id="uggGQ1npD3m-xXOtvxhS-21" style="edgeStyle=orthogonalEdgeStyle;rounded=0;orthogonalLoop=1;jettySize=auto;html=1;" parent="1" source="uggGQ1npD3m-xXOtvxhS-5" target="uggGQ1npD3m-xXOtvxhS-19" edge="1">
          <mxGeometry relative="1" as="geometry">
            <Array as="points">
              <mxPoint x="1440" y="640" />
              <mxPoint x="1440" y="640" />
            </Array>
          </mxGeometry>
        </mxCell>
        <mxCell id="uggGQ1npD3m-xXOtvxhS-26" style="edgeStyle=orthogonalEdgeStyle;rounded=0;orthogonalLoop=1;jettySize=auto;html=1;entryX=0;entryY=0.5;entryDx=0;entryDy=0;" parent="1" source="uggGQ1npD3m-xXOtvxhS-5" target="uggGQ1npD3m-xXOtvxhS-4" edge="1">
          <mxGeometry relative="1" as="geometry">
            <Array as="points">
              <mxPoint x="1350" y="559.9999999999995" />
              <mxPoint x="1350" y="740" />
            </Array>
          </mxGeometry>
        </mxCell>
        <mxCell id="uggGQ1npD3m-xXOtvxhS-5" value="&lt;font style=&quot;font-size: 18px;&quot;&gt;35 &amp;lt;= score&lt;/font&gt;" style="rhombus;whiteSpace=wrap;html=1;" parent="1" vertex="1">
          <mxGeometry x="1390" y="520" width="100" height="80" as="geometry" />
        </mxCell>
        <mxCell id="uggGQ1npD3m-xXOtvxhS-24" style="edgeStyle=orthogonalEdgeStyle;rounded=0;orthogonalLoop=1;jettySize=auto;html=1;entryX=0.5;entryY=0;entryDx=0;entryDy=0;" parent="1" source="uggGQ1npD3m-xXOtvxhS-6" target="uggGQ1npD3m-xXOtvxhS-15" edge="1">
          <mxGeometry relative="1" as="geometry">
            <Array as="points">
              <mxPoint x="1425" y="410" />
              <mxPoint x="1425" y="410" />
            </Array>
          </mxGeometry>
        </mxCell>
        <mxCell id="uggGQ1npD3m-xXOtvxhS-25" style="edgeStyle=orthogonalEdgeStyle;rounded=0;orthogonalLoop=1;jettySize=auto;html=1;entryX=1;entryY=0.5;entryDx=0;entryDy=0;" parent="1" target="uggGQ1npD3m-xXOtvxhS-5" edge="1">
          <mxGeometry relative="1" as="geometry">
            <mxPoint x="1449.9999999999995" y="349.94999999999953" as="sourcePoint" />
            <mxPoint x="1510" y="544.95" as="targetPoint" />
            <Array as="points">
              <mxPoint x="1550" y="350" />
              <mxPoint x="1550" y="560" />
            </Array>
          </mxGeometry>
        </mxCell>
        <mxCell id="uggGQ1npD3m-xXOtvxhS-6" value="&lt;font style=&quot;font-size: 18px;&quot;&gt;45 &amp;lt;= score&lt;/font&gt;" style="rhombus;whiteSpace=wrap;html=1;" parent="1" vertex="1">
          <mxGeometry x="1360" y="310" width="140" height="80" as="geometry" />
        </mxCell>
        <mxCell id="uggGQ1npD3m-xXOtvxhS-22" style="edgeStyle=orthogonalEdgeStyle;rounded=0;orthogonalLoop=1;jettySize=auto;html=1;entryX=0;entryY=0.5;entryDx=0;entryDy=0;" parent="1" source="uggGQ1npD3m-xXOtvxhS-7" target="uggGQ1npD3m-xXOtvxhS-6" edge="1">
          <mxGeometry relative="1" as="geometry">
            <mxPoint x="1230" y="200" as="targetPoint" />
            <Array as="points">
              <mxPoint x="1310" y="180" />
              <mxPoint x="1310" y="350" />
            </Array>
          </mxGeometry>
        </mxCell>
        <mxCell id="uggGQ1npD3m-xXOtvxhS-39" style="edgeStyle=orthogonalEdgeStyle;rounded=0;orthogonalLoop=1;jettySize=auto;html=1;entryX=0.447;entryY=0.043;entryDx=0;entryDy=0;entryPerimeter=0;" parent="1" source="uggGQ1npD3m-xXOtvxhS-7" target="uggGQ1npD3m-xXOtvxhS-14" edge="1">
          <mxGeometry relative="1" as="geometry" />
        </mxCell>
        <mxCell id="uggGQ1npD3m-xXOtvxhS-7" value="&lt;font style=&quot;font-size: 18px;&quot;&gt;60 &amp;lt;= score&lt;/font&gt;" style="rhombus;whiteSpace=wrap;html=1;" parent="1" vertex="1">
          <mxGeometry x="1350" y="140" width="140" height="80" as="geometry" />
        </mxCell>
        <mxCell id="uggGQ1npD3m-xXOtvxhS-51" style="edgeStyle=orthogonalEdgeStyle;rounded=0;orthogonalLoop=1;jettySize=auto;html=1;entryX=0.043;entryY=0.657;entryDx=0;entryDy=0;entryPerimeter=0;" parent="1" target="uggGQ1npD3m-xXOtvxhS-28" edge="1">
          <mxGeometry relative="1" as="geometry">
            <mxPoint x="1384.9999999999995" y="470" as="sourcePoint" />
            <mxPoint x="1370" y="950" as="targetPoint" />
            <Array as="points">
              <mxPoint x="1230" y="471" />
              <mxPoint x="1230" y="943" />
            </Array>
          </mxGeometry>
        </mxCell>
        <mxCell id="uggGQ1npD3m-xXOtvxhS-10" value="&lt;font style=&quot;font-size: 18px;&quot;&gt;Loại A&lt;/font&gt;" style="shape=parallelogram;perimeter=parallelogramPerimeter;whiteSpace=wrap;html=1;fixedSize=1;" parent="1" vertex="1">
          <mxGeometry x="1370" y="80" width="100" height="40" as="geometry" />
        </mxCell>
        <mxCell id="uggGQ1npD3m-xXOtvxhS-53" style="edgeStyle=orthogonalEdgeStyle;rounded=0;orthogonalLoop=1;jettySize=auto;html=1;entryX=1;entryY=0.5;entryDx=0;entryDy=0;" parent="1" source="uggGQ1npD3m-xXOtvxhS-14" target="uggGQ1npD3m-xXOtvxhS-28" edge="1">
          <mxGeometry relative="1" as="geometry">
            <Array as="points">
              <mxPoint x="1790" y="275" />
              <mxPoint x="1790" y="930" />
            </Array>
          </mxGeometry>
        </mxCell>
        <mxCell id="uggGQ1npD3m-xXOtvxhS-14" value="&lt;font style=&quot;font-size: 18px;&quot;&gt;Loại B&lt;/font&gt;" style="shape=parallelogram;perimeter=parallelogramPerimeter;whiteSpace=wrap;html=1;fixedSize=1;" parent="1" vertex="1">
          <mxGeometry x="1380" y="250" width="90" height="50" as="geometry" />
        </mxCell>
        <mxCell id="uggGQ1npD3m-xXOtvxhS-15" value="&lt;font style=&quot;font-size: 14px;&quot;&gt;loại C&lt;/font&gt;" style="shape=parallelogram;perimeter=parallelogramPerimeter;whiteSpace=wrap;html=1;fixedSize=1;" parent="1" vertex="1">
          <mxGeometry x="1380" y="450" width="90" height="50" as="geometry" />
        </mxCell>
        <mxCell id="uggGQ1npD3m-xXOtvxhS-29" style="edgeStyle=orthogonalEdgeStyle;rounded=0;orthogonalLoop=1;jettySize=auto;html=1;entryX=0.5;entryY=0;entryDx=0;entryDy=0;" parent="1" source="uggGQ1npD3m-xXOtvxhS-18" target="uggGQ1npD3m-xXOtvxhS-28" edge="1">
          <mxGeometry relative="1" as="geometry" />
        </mxCell>
        <mxCell id="uggGQ1npD3m-xXOtvxhS-18" value="&lt;font style=&quot;font-size: 18px;&quot;&gt;loại E&lt;/font&gt;" style="shape=parallelogram;perimeter=parallelogramPerimeter;whiteSpace=wrap;html=1;fixedSize=1;" parent="1" vertex="1">
          <mxGeometry x="1387.5" y="810" width="95" height="50" as="geometry" />
        </mxCell>
        <mxCell id="uggGQ1npD3m-xXOtvxhS-54" style="edgeStyle=orthogonalEdgeStyle;rounded=0;orthogonalLoop=1;jettySize=auto;html=1;entryX=1;entryY=0.5;entryDx=0;entryDy=0;" parent="1" source="uggGQ1npD3m-xXOtvxhS-19" target="uggGQ1npD3m-xXOtvxhS-28" edge="1">
          <mxGeometry relative="1" as="geometry">
            <Array as="points">
              <mxPoint x="1790" y="665" />
              <mxPoint x="1790" y="930" />
            </Array>
          </mxGeometry>
        </mxCell>
        <mxCell id="uggGQ1npD3m-xXOtvxhS-19" value="&lt;font style=&quot;font-size: 18px;&quot;&gt;loại D&lt;/font&gt;" style="shape=parallelogram;perimeter=parallelogramPerimeter;whiteSpace=wrap;html=1;fixedSize=1;" parent="1" vertex="1">
          <mxGeometry x="1385" y="640" width="90" height="50" as="geometry" />
        </mxCell>
        <mxCell id="uggGQ1npD3m-xXOtvxhS-28" value="&lt;font style=&quot;font-size: 24px;&quot;&gt;End&lt;/font&gt;" style="ellipse;whiteSpace=wrap;html=1;" parent="1" vertex="1">
          <mxGeometry x="1375" y="890" width="120" height="80" as="geometry" />
        </mxCell>
        <mxCell id="uggGQ1npD3m-xXOtvxhS-40" value="&lt;font style=&quot;font-size: 18px;&quot;&gt;True&lt;/font&gt;" style="text;html=1;align=center;verticalAlign=middle;resizable=0;points=[];autosize=1;strokeColor=none;fillColor=none;" parent="1" vertex="1">
          <mxGeometry x="1370" y="40" width="60" height="40" as="geometry" />
        </mxCell>
        <mxCell id="uggGQ1npD3m-xXOtvxhS-41" value="&lt;font style=&quot;font-size: 18px;&quot;&gt;False&lt;/font&gt;" style="text;html=1;align=center;verticalAlign=middle;resizable=0;points=[];autosize=1;strokeColor=none;fillColor=none;" parent="1" vertex="1">
          <mxGeometry x="1525" y="60" width="70" height="40" as="geometry" />
        </mxCell>
        <mxCell id="uggGQ1npD3m-xXOtvxhS-42" value="&lt;font style=&quot;font-size: 18px;&quot;&gt;True&lt;/font&gt;" style="text;html=1;align=center;verticalAlign=middle;resizable=0;points=[];autosize=1;strokeColor=none;fillColor=none;" parent="1" vertex="1">
          <mxGeometry x="1415" y="400" width="60" height="40" as="geometry" />
        </mxCell>
        <mxCell id="uggGQ1npD3m-xXOtvxhS-44" value="&lt;font style=&quot;font-size: 18px;&quot;&gt;True&lt;/font&gt;" style="text;html=1;align=center;verticalAlign=middle;resizable=0;points=[];autosize=1;strokeColor=none;fillColor=none;" parent="1" vertex="1">
          <mxGeometry x="1415" y="210" width="60" height="40" as="geometry" />
        </mxCell>
        <mxCell id="uggGQ1npD3m-xXOtvxhS-45" value="&lt;font style=&quot;font-size: 18px;&quot;&gt;True&lt;/font&gt;" style="text;html=1;align=center;verticalAlign=middle;resizable=0;points=[];autosize=1;strokeColor=none;fillColor=none;" parent="1" vertex="1">
          <mxGeometry x="1440" y="770" width="60" height="40" as="geometry" />
        </mxCell>
        <mxCell id="uggGQ1npD3m-xXOtvxhS-46" value="&lt;font style=&quot;font-size: 18px;&quot;&gt;False&lt;/font&gt;" style="text;html=1;align=center;verticalAlign=middle;resizable=0;points=[];autosize=1;strokeColor=none;fillColor=none;" parent="1" vertex="1">
          <mxGeometry x="1241" y="230" width="70" height="40" as="geometry" />
        </mxCell>
        <mxCell id="uggGQ1npD3m-xXOtvxhS-47" value="&lt;font style=&quot;font-size: 18px;&quot;&gt;False&lt;/font&gt;" style="text;html=1;align=center;verticalAlign=middle;resizable=0;points=[];autosize=1;strokeColor=none;fillColor=none;" parent="1" vertex="1">
          <mxGeometry x="1280" y="645" width="70" height="40" as="geometry" />
        </mxCell>
        <mxCell id="uggGQ1npD3m-xXOtvxhS-49" value="&lt;font style=&quot;font-size: 18px;&quot;&gt;False&lt;/font&gt;" style="text;html=1;align=center;verticalAlign=middle;resizable=0;points=[];autosize=1;strokeColor=none;fillColor=none;" parent="1" vertex="1">
          <mxGeometry x="1550" y="430" width="70" height="40" as="geometry" />
        </mxCell>
        <mxCell id="uggGQ1npD3m-xXOtvxhS-50" value="&lt;font style=&quot;font-size: 18px;&quot;&gt;True&lt;/font&gt;" style="text;html=1;align=center;verticalAlign=middle;resizable=0;points=[];autosize=1;strokeColor=none;fillColor=none;" parent="1" vertex="1">
          <mxGeometry x="1435" y="600" width="60" height="40" as="geometry" />
        </mxCell>
        <mxCell id="uggGQ1npD3m-xXOtvxhS-52" style="edgeStyle=orthogonalEdgeStyle;rounded=0;orthogonalLoop=1;jettySize=auto;html=1;entryX=0.043;entryY=0.675;entryDx=0;entryDy=0;entryPerimeter=0;" parent="1" target="uggGQ1npD3m-xXOtvxhS-28" edge="1">
          <mxGeometry relative="1" as="geometry">
            <mxPoint x="1379.9999999999995" y="100" as="sourcePoint" />
            <mxPoint x="1335" y="910.0000000000005" as="targetPoint" />
            <Array as="points">
              <mxPoint x="1230" y="101" />
              <mxPoint x="1230" y="944" />
            </Array>
          </mxGeometry>
        </mxCell>
        <mxCell id="uggGQ1npD3m-xXOtvxhS-78" style="edgeStyle=orthogonalEdgeStyle;rounded=0;orthogonalLoop=1;jettySize=auto;html=1;entryX=0.5;entryY=0;entryDx=0;entryDy=0;" parent="1" source="uggGQ1npD3m-xXOtvxhS-55" target="uggGQ1npD3m-xXOtvxhS-57" edge="1">
          <mxGeometry relative="1" as="geometry" />
        </mxCell>
        <mxCell id="uggGQ1npD3m-xXOtvxhS-55" value="Begin" style="ellipse;whiteSpace=wrap;html=1;" parent="1" vertex="1">
          <mxGeometry x="3375" y="190" width="120" height="60" as="geometry" />
        </mxCell>
        <mxCell id="uggGQ1npD3m-xXOtvxhS-75" style="edgeStyle=orthogonalEdgeStyle;rounded=0;orthogonalLoop=1;jettySize=auto;html=1;entryX=0.5;entryY=0;entryDx=0;entryDy=0;" parent="1" source="uggGQ1npD3m-xXOtvxhS-57" target="uggGQ1npD3m-xXOtvxhS-58" edge="1">
          <mxGeometry relative="1" as="geometry" />
        </mxCell>
        <mxCell id="uggGQ1npD3m-xXOtvxhS-57" value="Nhập số phần tử trong dảy số" style="shape=parallelogram;perimeter=parallelogramPerimeter;whiteSpace=wrap;html=1;fixedSize=1;" parent="1" vertex="1">
          <mxGeometry x="3320" y="270" width="230" height="60" as="geometry" />
        </mxCell>
        <mxCell id="uggGQ1npD3m-xXOtvxhS-76" style="edgeStyle=orthogonalEdgeStyle;rounded=0;orthogonalLoop=1;jettySize=auto;html=1;entryX=0.381;entryY=-0.027;entryDx=0;entryDy=0;entryPerimeter=0;" parent="1" source="uggGQ1npD3m-xXOtvxhS-58" target="uggGQ1npD3m-xXOtvxhS-59" edge="1">
          <mxGeometry relative="1" as="geometry" />
        </mxCell>
        <mxCell id="uggGQ1npD3m-xXOtvxhS-58" value="input a1,a2,a3,a3,...an" style="shape=parallelogram;perimeter=parallelogramPerimeter;whiteSpace=wrap;html=1;fixedSize=1;" parent="1" vertex="1">
          <mxGeometry x="3310" y="360" width="250" height="60" as="geometry" />
        </mxCell>
        <mxCell id="uggGQ1npD3m-xXOtvxhS-64" style="edgeStyle=orthogonalEdgeStyle;rounded=0;orthogonalLoop=1;jettySize=auto;html=1;entryX=0.5;entryY=0;entryDx=0;entryDy=0;" parent="1" source="uggGQ1npD3m-xXOtvxhS-59" target="uggGQ1npD3m-xXOtvxhS-60" edge="1">
          <mxGeometry relative="1" as="geometry" />
        </mxCell>
        <mxCell id="uggGQ1npD3m-xXOtvxhS-59" value="max = a [0]" style="rounded=0;whiteSpace=wrap;html=1;" parent="1" vertex="1">
          <mxGeometry x="3390" y="460" width="120" height="60" as="geometry" />
        </mxCell>
        <mxCell id="uggGQ1npD3m-xXOtvxhS-67" style="edgeStyle=orthogonalEdgeStyle;rounded=0;orthogonalLoop=1;jettySize=auto;html=1;entryX=0.5;entryY=0;entryDx=0;entryDy=0;" parent="1" source="uggGQ1npD3m-xXOtvxhS-60" target="uggGQ1npD3m-xXOtvxhS-61" edge="1">
          <mxGeometry relative="1" as="geometry" />
        </mxCell>
        <mxCell id="uggGQ1npD3m-xXOtvxhS-69" style="edgeStyle=orthogonalEdgeStyle;rounded=0;orthogonalLoop=1;jettySize=auto;html=1;" parent="1" source="uggGQ1npD3m-xXOtvxhS-60" target="uggGQ1npD3m-xXOtvxhS-71" edge="1">
          <mxGeometry relative="1" as="geometry">
            <mxPoint x="3760" y="580" as="targetPoint" />
          </mxGeometry>
        </mxCell>
        <mxCell id="uggGQ1npD3m-xXOtvxhS-72" style="edgeStyle=orthogonalEdgeStyle;rounded=0;orthogonalLoop=1;jettySize=auto;html=1;" parent="1" source="uggGQ1npD3m-xXOtvxhS-60" target="uggGQ1npD3m-xXOtvxhS-71" edge="1">
          <mxGeometry relative="1" as="geometry">
            <mxPoint x="3880" y="1080" as="targetPoint" />
            <Array as="points">
              <mxPoint x="3860" y="590" />
              <mxPoint x="3860" y="980" />
            </Array>
          </mxGeometry>
        </mxCell>
        <mxCell id="uggGQ1npD3m-xXOtvxhS-60" value="for(i =1 ; i &amp;lt; n ; i++)" style="rounded=0;whiteSpace=wrap;html=1;" parent="1" vertex="1">
          <mxGeometry x="3390" y="550" width="120" height="60" as="geometry" />
        </mxCell>
        <mxCell id="uggGQ1npD3m-xXOtvxhS-65" style="edgeStyle=orthogonalEdgeStyle;rounded=0;orthogonalLoop=1;jettySize=auto;html=1;entryX=0.5;entryY=0;entryDx=0;entryDy=0;" parent="1" source="uggGQ1npD3m-xXOtvxhS-61" target="uggGQ1npD3m-xXOtvxhS-62" edge="1">
          <mxGeometry relative="1" as="geometry" />
        </mxCell>
        <mxCell id="uggGQ1npD3m-xXOtvxhS-68" style="edgeStyle=orthogonalEdgeStyle;rounded=0;orthogonalLoop=1;jettySize=auto;html=1;" parent="1" source="uggGQ1npD3m-xXOtvxhS-61" edge="1">
          <mxGeometry relative="1" as="geometry">
            <mxPoint x="3450" y="620" as="targetPoint" />
            <Array as="points">
              <mxPoint x="3630" y="725" />
              <mxPoint x="3630" y="620" />
            </Array>
          </mxGeometry>
        </mxCell>
        <mxCell id="uggGQ1npD3m-xXOtvxhS-61" value="if(a[i] &amp;gt; max )&amp;nbsp;" style="rhombus;whiteSpace=wrap;html=1;" parent="1" vertex="1">
          <mxGeometry x="3370" y="685" width="160" height="80" as="geometry" />
        </mxCell>
        <mxCell id="uggGQ1npD3m-xXOtvxhS-66" style="edgeStyle=orthogonalEdgeStyle;rounded=0;orthogonalLoop=1;jettySize=auto;html=1;" parent="1" source="uggGQ1npD3m-xXOtvxhS-62" edge="1">
          <mxGeometry relative="1" as="geometry">
            <mxPoint x="3450" y="630" as="targetPoint" />
            <Array as="points">
              <mxPoint x="3230" y="870" />
              <mxPoint x="3230" y="630" />
            </Array>
          </mxGeometry>
        </mxCell>
        <mxCell id="uggGQ1npD3m-xXOtvxhS-62" value="max = a[i]" style="rounded=0;whiteSpace=wrap;html=1;" parent="1" vertex="1">
          <mxGeometry x="3390" y="840" width="120" height="60" as="geometry" />
        </mxCell>
        <mxCell id="uggGQ1npD3m-xXOtvxhS-74" style="edgeStyle=orthogonalEdgeStyle;rounded=0;orthogonalLoop=1;jettySize=auto;html=1;" parent="1" source="uggGQ1npD3m-xXOtvxhS-71" target="uggGQ1npD3m-xXOtvxhS-73" edge="1">
          <mxGeometry relative="1" as="geometry" />
        </mxCell>
        <mxCell id="uggGQ1npD3m-xXOtvxhS-71" value="display max" style="shape=parallelogram;perimeter=parallelogramPerimeter;whiteSpace=wrap;html=1;fixedSize=1;" parent="1" vertex="1">
          <mxGeometry x="3390" y="950" width="120" height="60" as="geometry" />
        </mxCell>
        <mxCell id="uggGQ1npD3m-xXOtvxhS-73" value="end" style="ellipse;whiteSpace=wrap;html=1;" parent="1" vertex="1">
          <mxGeometry x="3390" y="1040" width="120" height="80" as="geometry" />
        </mxCell>
        <mxCell id="W7kRlUSDhsr8WLx_9i0S-33" style="edgeStyle=orthogonalEdgeStyle;rounded=0;orthogonalLoop=1;jettySize=auto;html=1;entryX=0.5;entryY=0;entryDx=0;entryDy=0;" parent="1" source="W7kRlUSDhsr8WLx_9i0S-1" target="W7kRlUSDhsr8WLx_9i0S-3" edge="1">
          <mxGeometry relative="1" as="geometry" />
        </mxCell>
        <mxCell id="W7kRlUSDhsr8WLx_9i0S-1" value="Begin" style="ellipse;whiteSpace=wrap;html=1;" parent="1" vertex="1">
          <mxGeometry x="5286" y="-1110" width="120" height="80" as="geometry" />
        </mxCell>
        <mxCell id="W7kRlUSDhsr8WLx_9i0S-12" style="edgeStyle=orthogonalEdgeStyle;rounded=0;orthogonalLoop=1;jettySize=auto;html=1;entryX=0.5;entryY=0;entryDx=0;entryDy=0;" parent="1" source="W7kRlUSDhsr8WLx_9i0S-2" target="W7kRlUSDhsr8WLx_9i0S-7" edge="1">
          <mxGeometry relative="1" as="geometry" />
        </mxCell>
        <mxCell id="W7kRlUSDhsr8WLx_9i0S-2" value="&amp;nbsp;i=1" style="rounded=0;whiteSpace=wrap;html=1;" parent="1" vertex="1">
          <mxGeometry x="5290" y="-840" width="120" height="60" as="geometry" />
        </mxCell>
        <mxCell id="W7kRlUSDhsr8WLx_9i0S-34" value="" style="edgeStyle=orthogonalEdgeStyle;rounded=0;orthogonalLoop=1;jettySize=auto;html=1;" parent="1" source="W7kRlUSDhsr8WLx_9i0S-3" target="W7kRlUSDhsr8WLx_9i0S-9" edge="1">
          <mxGeometry relative="1" as="geometry" />
        </mxCell>
        <mxCell id="W7kRlUSDhsr8WLx_9i0S-3" value="input a1,a2,a3,a4,an" style="shape=parallelogram;perimeter=parallelogramPerimeter;whiteSpace=wrap;html=1;fixedSize=1;" parent="1" vertex="1">
          <mxGeometry x="5265" y="-1010" width="170" height="60" as="geometry" />
        </mxCell>
        <mxCell id="W7kRlUSDhsr8WLx_9i0S-15" style="edgeStyle=orthogonalEdgeStyle;rounded=0;orthogonalLoop=1;jettySize=auto;html=1;entryX=0.5;entryY=0;entryDx=0;entryDy=0;" parent="1" source="W7kRlUSDhsr8WLx_9i0S-4" target="W7kRlUSDhsr8WLx_9i0S-6" edge="1">
          <mxGeometry relative="1" as="geometry" />
        </mxCell>
        <mxCell id="W7kRlUSDhsr8WLx_9i0S-23" style="edgeStyle=orthogonalEdgeStyle;rounded=0;orthogonalLoop=1;jettySize=auto;html=1;entryX=0.997;entryY=0.595;entryDx=0;entryDy=0;entryPerimeter=0;" parent="1" source="W7kRlUSDhsr8WLx_9i0S-4" target="W7kRlUSDhsr8WLx_9i0S-18" edge="1">
          <mxGeometry relative="1" as="geometry">
            <Array as="points">
              <mxPoint x="5540" y="-600" />
              <mxPoint x="5540" y="-364" />
            </Array>
          </mxGeometry>
        </mxCell>
        <mxCell id="W7kRlUSDhsr8WLx_9i0S-4" value="if(a[i] &amp;gt; max" style="rhombus;whiteSpace=wrap;html=1;" parent="1" vertex="1">
          <mxGeometry x="5265" y="-640" width="170" height="80" as="geometry" />
        </mxCell>
        <mxCell id="W7kRlUSDhsr8WLx_9i0S-16" style="edgeStyle=orthogonalEdgeStyle;rounded=0;orthogonalLoop=1;jettySize=auto;html=1;entryX=0.5;entryY=0;entryDx=0;entryDy=0;" parent="1" source="W7kRlUSDhsr8WLx_9i0S-6" edge="1">
          <mxGeometry relative="1" as="geometry">
            <mxPoint x="5350.000000000001" y="-400" as="targetPoint" />
          </mxGeometry>
        </mxCell>
        <mxCell id="W7kRlUSDhsr8WLx_9i0S-6" value="max = a[i]" style="rounded=0;whiteSpace=wrap;html=1;" parent="1" vertex="1">
          <mxGeometry x="5290" y="-500" width="120" height="60" as="geometry" />
        </mxCell>
        <mxCell id="W7kRlUSDhsr8WLx_9i0S-14" style="edgeStyle=orthogonalEdgeStyle;rounded=0;orthogonalLoop=1;jettySize=auto;html=1;entryX=0.5;entryY=0;entryDx=0;entryDy=0;" parent="1" source="W7kRlUSDhsr8WLx_9i0S-7" target="W7kRlUSDhsr8WLx_9i0S-4" edge="1">
          <mxGeometry relative="1" as="geometry" />
        </mxCell>
        <mxCell id="W7kRlUSDhsr8WLx_9i0S-22" style="edgeStyle=orthogonalEdgeStyle;rounded=0;orthogonalLoop=1;jettySize=auto;html=1;entryX=1;entryY=0.75;entryDx=0;entryDy=0;" parent="1" source="W7kRlUSDhsr8WLx_9i0S-7" target="W7kRlUSDhsr8WLx_9i0S-20" edge="1">
          <mxGeometry relative="1" as="geometry">
            <mxPoint x="5640.000000000001" y="-700" as="targetPoint" />
            <Array as="points">
              <mxPoint x="5650" y="-700" />
              <mxPoint x="5650" y="-248" />
            </Array>
          </mxGeometry>
        </mxCell>
        <mxCell id="W7kRlUSDhsr8WLx_9i0S-7" value="i &amp;lt; n" style="rhombus;whiteSpace=wrap;html=1;" parent="1" vertex="1">
          <mxGeometry x="5310" y="-740" width="80" height="80" as="geometry" />
        </mxCell>
        <mxCell id="W7kRlUSDhsr8WLx_9i0S-17" style="edgeStyle=orthogonalEdgeStyle;rounded=0;orthogonalLoop=1;jettySize=auto;html=1;exitX=0;exitY=0.75;exitDx=0;exitDy=0;" parent="1" source="W7kRlUSDhsr8WLx_9i0S-18" edge="1">
          <mxGeometry relative="1" as="geometry">
            <mxPoint x="5350" y="-775" as="targetPoint" />
            <mxPoint x="5310.000000000001" y="-360" as="sourcePoint" />
            <Array as="points">
              <mxPoint x="5290" y="-360" />
              <mxPoint x="5120" y="-360" />
              <mxPoint x="5120" y="-775" />
            </Array>
          </mxGeometry>
        </mxCell>
        <mxCell id="W7kRlUSDhsr8WLx_9i0S-11" style="edgeStyle=orthogonalEdgeStyle;rounded=0;orthogonalLoop=1;jettySize=auto;html=1;entryX=0.5;entryY=0;entryDx=0;entryDy=0;" parent="1" source="W7kRlUSDhsr8WLx_9i0S-9" target="W7kRlUSDhsr8WLx_9i0S-2" edge="1">
          <mxGeometry relative="1" as="geometry" />
        </mxCell>
        <mxCell id="W7kRlUSDhsr8WLx_9i0S-9" value="max = a[0]" style="rounded=0;whiteSpace=wrap;html=1;" parent="1" vertex="1">
          <mxGeometry x="5290" y="-930" width="120" height="60" as="geometry" />
        </mxCell>
        <mxCell id="W7kRlUSDhsr8WLx_9i0S-18" value="i ++" style="rounded=0;whiteSpace=wrap;html=1;" parent="1" vertex="1">
          <mxGeometry x="5290" y="-400" width="120" height="60" as="geometry" />
        </mxCell>
        <mxCell id="W7kRlUSDhsr8WLx_9i0S-24" style="edgeStyle=orthogonalEdgeStyle;rounded=0;orthogonalLoop=1;jettySize=auto;html=1;entryX=0.5;entryY=0;entryDx=0;entryDy=0;" parent="1" source="W7kRlUSDhsr8WLx_9i0S-20" target="W7kRlUSDhsr8WLx_9i0S-21" edge="1">
          <mxGeometry relative="1" as="geometry" />
        </mxCell>
        <mxCell id="W7kRlUSDhsr8WLx_9i0S-20" value="display max" style="shape=parallelogram;perimeter=parallelogramPerimeter;whiteSpace=wrap;html=1;fixedSize=1;" parent="1" vertex="1">
          <mxGeometry x="5290" y="-290" width="120" height="60" as="geometry" />
        </mxCell>
        <mxCell id="W7kRlUSDhsr8WLx_9i0S-21" value="End" style="ellipse;whiteSpace=wrap;html=1;" parent="1" vertex="1">
          <mxGeometry x="5290" y="-205" width="120" height="80" as="geometry" />
        </mxCell>
        <mxCell id="W7kRlUSDhsr8WLx_9i0S-27" value="True" style="text;html=1;strokeColor=none;fillColor=none;align=center;verticalAlign=middle;whiteSpace=wrap;rounded=0;" parent="1" vertex="1">
          <mxGeometry x="5340" y="-680" width="60" height="70" as="geometry" />
        </mxCell>
        <mxCell id="W7kRlUSDhsr8WLx_9i0S-31" value="False" style="text;html=1;align=center;verticalAlign=middle;resizable=0;points=[];autosize=1;strokeColor=none;fillColor=none;" parent="1" vertex="1">
          <mxGeometry x="5540" y="-512" width="50" height="30" as="geometry" />
        </mxCell>
        <mxCell id="W7kRlUSDhsr8WLx_9i0S-32" value="False" style="text;html=1;align=center;verticalAlign=middle;resizable=0;points=[];autosize=1;strokeColor=none;fillColor=none;" parent="1" vertex="1">
          <mxGeometry x="5480" y="-730" width="50" height="30" as="geometry" />
        </mxCell>
        <mxCell id="f9L3UYtIGrW9HHO4NIre-1" value="True" style="text;html=1;strokeColor=none;fillColor=none;align=center;verticalAlign=middle;whiteSpace=wrap;rounded=0;" vertex="1" parent="1">
          <mxGeometry x="5346" y="-550" width="60" height="30" as="geometry" />
        </mxCell>
        <mxCell id="f9L3UYtIGrW9HHO4NIre-2" value="True" style="text;html=1;strokeColor=none;fillColor=none;align=center;verticalAlign=middle;whiteSpace=wrap;rounded=0;" vertex="1" parent="1">
          <mxGeometry x="5340" y="-430" width="60" height="30" as="geometry" />
        </mxCell>
      </root>
    </mxGraphModel>
  </diagram>
</mxfile>
